# xmcd
#
# Track frame offsets:
#	150
#	7237
#	24119
#	31046
#	45788
#	51900
#	61012
#	70239
#	78348
#	89382
#	98955
#	109150
#	119827
#	134734
#	145256
#	152388
#	162873
#	174295
#	179747
#	196669
#	208624
#	213831
#	235345
#	251842
#	259712
#	289071
#	297832
#	307942
#	315549
#	327871
#	344681
#
# Disc length: 4711 seconds
#
# Revision: 2
# Processed by: cddbd v1.4PL0 Copyright (c) Steve Scherf et al.
# Submitted via: audiograbber 1.81.02
#
DISCID=b912651f
DTITLE=Various Artist - Amelie'sm: Creationism of Yann Tiersen
DYEAR=2002
DGENRE=Other
TTITLE0=Yann Tiersen - J'y Suis Jamais Alle
TTITLE1=Lars Hollmer - Simfageldans
TTITLE2=The Jellyfish Kiss - Le Marais
TTITLE3=The Tiger Lillies - Beat Me
TTITLE4=The Jellyfish Kiss - Half Moon
TTITLE5=A.Popp - Chant Du Mystere
TTITLE6=Yann Tiersen - La Noyee
TTITLE7=Lars Hollmer - Skiss Mellan Brest Och Segosero
TTITLE8=The Tiger Lillies - Whore
TTITLE9=Pascal Comelade - The Sheik Of Araby
TTITLE10=Yann Tiersen - La Valse d'Amelie
TTITLE11=Jerry Murad's Haronicats - Charmaine
TTITLE12=The Tiger Lillies - Suicide
TTITLE13=Yann Tiersen - La Valse Des Vieux Os
TTITLE14=Lars Hollmer - Ante Flottar Ja Te Sjoss
TTITLE15=Jerry Murad's Haronicats - The Last Outpost
TTITLE16=B.Vian, A.Goraguer - java des Bombes Atomique
TTITLE17=Moondog - I Love You
TTITLE18=The Jellyfish Kiss - Love My Knee
TTITLE19=Lars Hollmer - Avlagsen Strandvals
TTITLE20=The Tiger Lillies - Larder
TTITLE21=Lars Hollmer - Retsticka
TTITLE22=Yann Tiersen - La Valse Des Monstres
TTITLE23=Moondog - Lament 1 "Bird's lament"
TTITLE24=Astor Piazzolla - Milonga Delangel
TTITLE25=Moondog - Nero's Expedition
TTITLE26=Moondog  - Stamping Ground
TTITLE27=Lars Hollmer - Gitarette
TTITLE28=Lars Hollmer - Inte Quanta
TTITLE29=Lars Hollmer - Onk Kch Onk Kch
TTITLE30=The Tiger Lillies - Snip Snip
EXTD=
EXTT0=
EXTT1=
EXTT2=
EXTT3=
EXTT4=
EXTT5=
EXTT6=
EXTT7=
EXTT8=
EXTT9=
EXTT10=
EXTT11=
EXTT12=
EXTT13=
EXTT14=
EXTT15=
EXTT16=
EXTT17=
EXTT18=
EXTT19=
EXTT20=
EXTT21=
EXTT22=
EXTT23=
EXTT24=
EXTT25=
EXTT26=
EXTT27=
EXTT28=
EXTT29=
EXTT30=
PLAYORDER=
